<svg width="23" height="24" viewBox="0 0 23 24" fill="none" xmlns="http://www.w3.org/2000/svg">
<path d="M10.6878 17.353C10.6882 17.3534 10.6885 17.3536 10.6888 17.354C10.7106 17.3756 10.7334 17.3962 10.7572 17.4158C10.7682 17.4248 10.7797 17.4326 10.7911 17.4411C10.8044 17.4511 10.8176 17.4616 10.8316 17.4709C10.845 17.48 10.8591 17.4878 10.8729 17.496C10.8855 17.5036 10.8979 17.5115 10.9109 17.5185C10.925 17.526 10.9396 17.5325 10.954 17.5393C10.9676 17.5457 10.9809 17.5525 10.9949 17.5583C11.0088 17.564 11.0231 17.5688 11.0373 17.5738C11.0523 17.5792 11.067 17.5849 11.0823 17.5895C11.0964 17.5938 11.1109 17.597 11.1252 17.6006C11.1408 17.6045 11.1562 17.6089 11.172 17.612C11.1887 17.6153 11.2055 17.6173 11.2222 17.6197C11.236 17.6217 11.2495 17.6243 11.2636 17.6257C11.3257 17.6318 11.3883 17.6318 11.4504 17.6257C11.4644 17.6243 11.4779 17.6217 11.4918 17.6197C11.5085 17.6173 11.5253 17.6154 11.5419 17.612C11.5578 17.6089 11.5731 17.6045 11.5887 17.6006C11.6031 17.597 11.6175 17.5938 11.6317 17.5895C11.647 17.5849 11.6617 17.5792 11.6766 17.5738C11.6908 17.5687 11.7051 17.564 11.7191 17.5583C11.733 17.5525 11.7464 17.5457 11.7599 17.5393C11.7744 17.5325 11.7889 17.5261 11.803 17.5185C11.816 17.5115 11.8284 17.5036 11.841 17.496C11.8549 17.4878 11.8689 17.4799 11.8824 17.4709C11.8964 17.4615 11.9095 17.4511 11.9229 17.4411C11.9342 17.4326 11.9458 17.4248 11.9568 17.4158C11.9805 17.3963 12.0034 17.3757 12.0251 17.354C12.0255 17.3536 12.0258 17.3533 12.0261 17.353L16.7582 12.6173C17.1278 12.2474 17.1278 11.6477 16.7582 11.2778C16.3886 10.908 15.7894 10.908 15.4198 11.2778L12.3034 14.3967V1.52898C12.3034 1.00589 11.8797 0.581848 11.357 0.581848C10.8344 0.581848 10.4106 1.00589 10.4106 1.52898V14.3967L7.2942 11.2778C6.9246 10.908 6.32534 10.908 5.95575 11.2778C5.58616 11.6477 5.58616 12.2474 5.95575 12.6173L10.6878 17.353Z" fill="#31456A"/>
<path d="M21.7677 16.6833C21.245 16.6833 20.8213 17.1074 20.8213 17.6305V21.419H1.89286V17.6305C1.89286 17.1074 1.46914 16.6833 0.94645 16.6833C0.423715 16.6833 0 17.1074 0 17.6305V22.3661C0 22.8892 0.423715 23.3132 0.946406 23.3132H21.7676C22.2903 23.3132 22.7141 22.8892 22.7141 22.3661V17.6305C22.7141 17.1074 22.2904 16.6833 21.7677 16.6833Z" fill="#31456A"/>
</svg>
