<svg width="24" height="19" viewBox="0 0 24 19" fill="none" xmlns="http://www.w3.org/2000/svg">
<path d="M18.5045 9.57164C20.3576 9.71736 22.1974 9.87638 23.7177 10.3512C22.2096 10.1041 20.3786 9.72844 18.5045 9.6758C17.7311 11.205 16.1715 11.9564 14.0205 12.1143C14.252 12.6174 14.6949 12.8091 14.8034 13.6197C14.9634 14.8303 14.5504 16.6022 14.9579 17.4084C15.1538 17.7946 15.4728 17.8046 15.6876 18.1354C15.161 18.7587 13.8544 18.065 13.7066 17.4084C13.4514 16.2837 14.0942 14.5383 13.3944 13.7743C13.4442 15.0026 13.1053 16.7253 13.4469 17.8229C13.5815 18.2534 13.9707 18.4213 13.8644 18.8097C11.4156 19.0584 12.4393 15.6376 12.039 13.6197C11.6692 13.6457 11.8314 14.1738 11.8303 14.3976C11.8192 16.3695 12.2339 19.0728 10.1101 18.8097C10.0486 18.3963 10.3963 18.2534 10.5276 17.8755C10.9146 16.7663 10.455 15.1129 10.6327 13.7743C9.82221 14.386 10.7175 16.5208 10.2147 17.6162C9.92629 18.2456 8.99339 18.5199 8.28694 18.2384C8.37884 17.7686 8.86329 17.8456 9.06869 17.4084C9.35548 16.7978 9.0698 15.9202 9.17278 15.0198C7.67239 15.3196 6.50862 14.9777 5.93947 14.0341C5.68534 13.6108 5.62167 13.1122 5.3144 12.7376C5.00657 12.3608 4.51825 12.311 4.37651 11.8023C6.23345 11.3541 6.30487 13.7155 7.97357 13.7743C8.4857 13.7926 8.7509 13.6258 9.22482 13.5155C9.35659 12.9204 9.64116 12.4755 10.0592 12.1647C7.98299 11.8793 6.26833 11.2322 5.47163 9.67414C3.5848 9.76723 1.85796 10.0193 0.257365 10.4011C1.70959 9.8725 3.49953 9.68411 5.41959 9.62261C5.30609 8.94166 4.31451 9.12893 3.6994 9.15498C2.55612 9.20595 1.11497 9.34835 0.205322 9.519C1.52467 9.04804 3.37386 9.10677 5.15882 9.10345C4.61292 7.38971 4.80116 4.66756 5.99262 3.65361C5.65544 2.80311 5.76008 1.40962 6.20134 0.746948C7.5301 0.806788 8.33677 1.3869 9.17278 1.94097C10.2087 1.64621 11.2982 1.49938 12.7172 1.57805C13.3141 1.61241 13.9358 1.87892 14.3854 1.83681C14.8266 1.79691 15.3133 1.29991 15.7407 1.11097C16.2993 0.863857 16.7705 0.770773 17.41 0.746948C17.7167 1.44397 17.9149 2.59976 17.6187 3.44583C18.8301 4.48083 19.2453 6.99576 18.6612 9.05192C20.3869 9.18323 22.4426 8.98876 23.7708 9.519C22.5307 9.35888 20.8359 9.04583 19.237 9.15553C18.9308 9.17659 18.4829 9.14556 18.5045 9.57164Z" fill="#006DE1"/>
</svg>
