<svg width="21" height="20" viewBox="0 0 21 20" fill="none" xmlns="http://www.w3.org/2000/svg">
<path d="M3.23744 0.871338C1.80897 0.871338 0.875 1.81006 0.875 3.04388C0.875 4.25045 1.78114 5.21594 3.18263 5.21594H3.20974C4.66616 5.21594 5.57254 4.25045 5.57254 3.04388C5.54531 1.81006 4.66616 0.871338 3.23744 0.871338Z" fill="#006DE1"/>
<path d="M1.12186 6.93256H5.29788V19.5059H1.12186V6.93256Z" fill="#006DE1"/>
<path d="M15.5481 6.63757C13.2952 6.63757 11.7846 8.75609 11.7846 8.75609V6.93267H7.60846V19.506H11.7844V12.4846C11.7844 12.1087 11.8116 11.7334 11.9219 11.4646C12.2238 10.714 12.9108 9.93636 14.0645 9.93636C15.5756 9.93636 16.18 11.0894 16.18 12.7797V19.506H20.3557V12.2967C20.3557 8.4347 18.2954 6.63757 15.5481 6.63757Z" fill="#006DE1"/>
</svg>
